<svg xmlns="http://www.w3.org/2000/svg" xmlns:xlink="http://www.w3.org/1999/xlink" width="500" zoomAndPan="magnify" viewBox="0 0 375 92.999996" height="124" preserveAspectRatio="xMidYMid meet" version="1.0"><defs><g/></defs><g fill="#ffffff" fill-opacity="1"><g transform="translate(-0.411877, 90.911091)"><g><path d="M 39.71875 -71.578125 C 39.71875 -80.4375 38.46875 -89.1875 21.984375 -89.1875 L 2.625 -89.1875 L 2.625 0 L 23.484375 0 C 36.46875 0 39.71875 -8.75 39.71875 -16.734375 L 39.71875 -31.84375 C 39.71875 -43.34375 35.71875 -45.21875 23.484375 -45.46875 L 23.484375 -46.34375 C 35.71875 -46.59375 39.71875 -48.34375 39.71875 -59.828125 Z M 17.359375 -47.34375 L 17.359375 -76.8125 L 21.109375 -76.8125 C 23.984375 -76.8125 24.984375 -74.9375 24.984375 -71.453125 L 24.984375 -53.578125 C 24.984375 -48.46875 23.984375 -47.34375 21.109375 -47.34375 Z M 24.984375 -17.734375 C 24.984375 -14.234375 23.984375 -12.359375 21.109375 -12.359375 L 17.359375 -12.359375 L 17.359375 -44.59375 L 21.109375 -44.59375 C 23.984375 -44.59375 24.984375 -43.46875 24.984375 -38.34375 Z M 24.984375 -17.734375 "/></g></g></g><g fill="#ffffff" fill-opacity="1"><g transform="translate(41.058281, 90.911091)"><g><path d="M 39.46875 -25.359375 C 39.46875 -37.84375 35.59375 -39.84375 23.609375 -40.09375 L 23.609375 -40.96875 C 35.59375 -41.21875 39.46875 -43.96875 39.46875 -55.703125 L 39.46875 -71.578125 C 39.46875 -80.4375 38.21875 -89.1875 22.609375 -89.1875 L 2.625 -89.1875 L 2.625 0 L 17.359375 0 L 17.359375 -38.96875 L 21.109375 -38.96875 C 23.734375 -38.96875 24.734375 -38.09375 24.734375 -33.96875 L 24.734375 -16.609375 C 24.734375 -10.25 24.859375 -3.5 26.484375 0 L 41.96875 0 C 39.71875 -3.875 39.46875 -9.5 39.46875 -17.234375 Z M 17.359375 -41.71875 L 17.359375 -76.4375 L 20.984375 -76.4375 C 23.609375 -76.4375 24.734375 -74.6875 24.734375 -71.203125 L 24.734375 -47.59375 C 24.734375 -42.96875 23.734375 -41.71875 21.109375 -41.71875 Z M 17.359375 -41.71875 "/></g></g></g><g fill="#ffffff" fill-opacity="1"><g transform="translate(82.653351, 90.911091)"><g><path d="M 41.84375 0 L 30.984375 -89.1875 L 10.984375 -89.1875 L 0.125 0 L 15.859375 0 L 16.984375 -17.984375 L 25.109375 -17.984375 L 26.234375 0 Z M 20.609375 -73.9375 L 21.484375 -73.9375 L 24.859375 -20.734375 L 17.234375 -20.734375 Z M 20.609375 -73.9375 "/></g></g></g><g fill="#ffffff" fill-opacity="1"><g transform="translate(124.748059, 90.911091)"><g><path d="M 16.484375 0 L 16.484375 -60.203125 L 17.359375 -60.203125 L 26.484375 0 L 39.84375 0 L 39.84375 -89.1875 L 25.734375 -89.1875 L 25.734375 -33.34375 L 24.859375 -33.34375 L 15.859375 -89.1875 L 2.625 -89.1875 L 2.625 0 Z M 16.484375 0 "/></g></g></g><g fill="#ffffff" fill-opacity="1"><g transform="translate(167.217492, 90.911091)"><g><path d="M 2.625 -89.1875 L 2.625 0 L 20.859375 0 C 37.34375 0 39.59375 -11.359375 39.59375 -20.359375 L 39.59375 -68.828125 C 39.59375 -77.8125 37.34375 -89.1875 20.859375 -89.1875 Z M 24.859375 -17.734375 C 24.859375 -14.234375 23.734375 -12.359375 20.859375 -12.359375 L 17.359375 -12.359375 L 17.359375 -76.8125 L 20.859375 -76.8125 C 23.734375 -76.8125 24.859375 -74.9375 24.859375 -71.453125 Z M 24.859375 -17.734375 "/></g></g></g><g fill="#ffffff" fill-opacity="1"><g transform="translate(209.062364, 90.911091)"><g/></g></g><g fill="#ffffff" fill-opacity="1"><g transform="translate(225.925232, 90.911091)"><g><path d="M 1.375 -89.1875 L 1.375 -76.8125 L 17.484375 -76.8125 L 0.5 -9.625 L 0.5 0 L 31.84375 0 L 31.84375 -12.359375 L 15.484375 -12.359375 L 32.59375 -79.5625 L 32.59375 -89.1875 Z M 1.375 -89.1875 "/></g></g></g><g fill="#ffffff" fill-opacity="1"><g transform="translate(258.901517, 90.911091)"><g><path d="M 20.859375 1.125 C 37.46875 1.125 39.59375 -10.25 39.59375 -19.234375 L 39.59375 -69.953125 C 39.59375 -78.9375 37.46875 -90.3125 20.859375 -90.3125 C 4.375 -90.3125 2.25 -78.9375 2.25 -69.953125 L 2.25 -19.234375 C 2.25 -10.25 4.375 1.125 20.859375 1.125 Z M 20.859375 -11.359375 C 18.109375 -11.359375 16.984375 -13.484375 16.984375 -16.734375 L 16.984375 -72.453125 C 16.984375 -75.6875 18.109375 -77.8125 20.859375 -77.8125 C 23.734375 -77.8125 24.859375 -75.6875 24.859375 -72.453125 L 24.859375 -16.734375 C 24.859375 -13.484375 23.734375 -11.359375 20.859375 -11.359375 Z M 20.859375 -11.359375 "/></g></g></g><g fill="#ffffff" fill-opacity="1"><g transform="translate(300.7464, 90.911091)"><g><path d="M 16.484375 0 L 16.484375 -60.203125 L 17.359375 -60.203125 L 26.484375 0 L 39.84375 0 L 39.84375 -89.1875 L 25.734375 -89.1875 L 25.734375 -33.34375 L 24.859375 -33.34375 L 15.859375 -89.1875 L 2.625 -89.1875 L 2.625 0 Z M 16.484375 0 "/></g></g></g><g fill="#ffffff" fill-opacity="1"><g transform="translate(343.215834, 90.911091)"><g><path d="M 27.859375 -89.1875 L 2.625 -89.1875 L 2.625 0 L 27.859375 0 L 27.859375 -12.359375 L 17.359375 -12.359375 L 17.359375 -39.34375 L 26.484375 -39.34375 L 26.609375 -51.71875 L 17.359375 -51.71875 L 17.359375 -76.8125 L 27.859375 -76.8125 Z M 27.859375 -89.1875 "/></g></g></g></svg>